<svg width="20" height="20" viewBox="0 0 20 20" fill="none" xmlns="http://www.w3.org/2000/svg">
<g clip-path="url(#clip0_12001_9714)">
<mask id="mask0_12001_9714" style="mask-type:luminance" maskUnits="userSpaceOnUse" x="0" y="0" width="20" height="20">
<path d="M19.0525 0.949219H0.947266V19.0545H19.0525V0.949219Z" fill="white"/>
</mask>
<g mask="url(#mask0_12001_9714)">
<path d="M0.947266 9.9808C0.947266 4.99132 4.98937 0.949219 9.97885 0.949219C14.9683 0.949219 19.0104 4.99132 19.0104 9.9808C19.0104 14.9703 14.9683 19.0124 9.97885 19.0124C4.98937 19.0019 0.947266 14.9597 0.947266 9.9808Z" fill="#002F42"/>
<path d="M14.042 6.30715C13.2736 5.95979 12.4736 5.70715 11.642 5.57031C11.5367 5.75979 11.421 6.00189 11.3367 6.20189C10.4525 6.06505 9.5578 6.06505 8.67359 6.20189C8.57885 5.98084 8.47359 5.77031 8.3578 5.57031C7.52622 5.70715 6.71569 5.95979 5.9578 6.31768C4.44201 8.58084 4.03148 10.7808 4.23148 12.9598C5.12622 13.6229 6.11569 14.1282 7.17885 14.444C7.42096 14.1177 7.63148 13.7808 7.81043 13.4229C7.46306 13.2966 7.13675 13.1387 6.82096 12.9493C6.90517 12.8861 6.97885 12.8229 7.06306 12.7598C8.92622 13.644 11.0946 13.644 12.9578 12.7598C13.042 12.8229 13.1157 12.8861 13.1999 12.9493C12.8841 13.1387 12.5473 13.2966 12.1999 13.4229C12.3788 13.7808 12.5894 14.1177 12.8315 14.444C13.8946 14.1177 14.8946 13.6229 15.7789 12.9598C16.0104 10.4335 15.3578 8.244 14.042 6.30715ZM8.06306 11.6124C7.48411 11.6124 7.02096 11.0861 7.02096 10.444C7.02096 9.80189 7.48411 9.26505 8.06306 9.26505C8.65254 9.26505 9.11569 9.79136 9.11569 10.444C9.10517 11.0861 8.65254 11.6124 8.06306 11.6124ZM11.9367 11.6124C11.3578 11.6124 10.8946 11.0861 10.8946 10.444C10.8946 9.80189 11.3578 9.26505 11.9367 9.26505C12.5262 9.26505 12.9894 9.79136 12.9789 10.444C12.9683 11.0966 12.5157 11.6124 11.9367 11.6124Z" fill="white"/>
</g>
</g>
<defs>
<clipPath id="clip0_12001_9714">
<rect width="20" height="20" fill="white"/>
</clipPath>
</defs>
</svg>
