<svg width="20" height="20" viewBox="0 0 20 20" fill="none" xmlns="http://www.w3.org/2000/svg">
<path d="M18.9486 9.85153C18.9486 4.91766 14.9422 0.917969 10.0001 0.917969C5.05791 0.917969 1.05151 4.91766 1.05151 9.85153C1.05151 14.3105 4.32386 18.0064 8.60185 18.6766V12.4339H6.32976V9.85153H8.60185V7.88336C8.60185 5.64438 9.9378 4.40764 11.9818 4.40764C12.9609 4.40764 13.985 4.58212 13.985 4.58212V6.78062H12.8566C11.7449 6.78062 11.3983 7.46925 11.3983 8.17574V9.85153H13.8801L13.4834 12.4339H11.3983V18.6766C15.6763 18.0064 18.9486 14.3105 18.9486 9.85153Z" fill="#002F42"/>
<path d="M13.4832 12.4325L13.8799 9.85014H11.3981V8.17434C11.3981 7.46786 11.7448 6.77922 12.8564 6.77922H13.9848V4.58073C13.9848 4.58073 12.9607 4.40625 11.9817 4.40625C9.93763 4.40625 8.60168 5.64298 8.60168 7.88196V9.85014H6.32959V12.4325H8.60168V18.6752C9.06422 18.7475 9.53171 18.7838 9.99989 18.7837C10.4756 18.7837 10.9425 18.7465 11.3981 18.6752V12.4325H13.4832Z" fill="white"/>
</svg>
