<svg width="16" height="16" viewBox="0 0 16 16" fill="none" xmlns="http://www.w3.org/2000/svg">
<path d="M7.2 10.528C7.17241 10.5566 7.17241 10.5566 7.17241 10.5852C6.01379 11.9566 4.85517 13.328 3.66897 14.728C3.3931 15.0709 3.11724 15.3852 2.81379 15.728C2.78621 15.7566 2.75862 15.7852 2.70345 15.7852C1.93103 15.7852 1.15862 15.7852 0.386207 15.7852C0.358621 15.7852 0.358621 15.7852 0.331034 15.7852C0.331034 15.7852 0.331034 15.7852 0.331034 15.7566C0.331034 15.7566 0.331034 15.7566 0.331034 15.728C2.2069 13.4994 4.11034 11.2709 5.98621 9.0423C4.02759 6.2423 2.01379 3.52801 0 0.785156C0.0275862 0.785156 0.0551725 0.785156 0.0827587 0.785156C1.71034 0.785156 3.36552 0.785156 4.9931 0.785156C5.04828 0.785156 5.07586 0.813728 5.10345 0.842299C6.17931 2.29944 7.25517 3.78516 8.30345 5.2423C8.35862 5.32801 8.44138 5.41373 8.49655 5.49944C8.49655 5.52801 8.52414 5.52801 8.55172 5.55659C8.57931 5.52801 8.57931 5.49944 8.6069 5.49944C9.26897 4.72801 9.90345 3.95658 10.5655 3.18516C11.2276 2.41373 11.8897 1.61373 12.5517 0.842299C12.5793 0.813728 12.6069 0.785156 12.6621 0.785156C13.4345 0.785156 14.2069 0.785156 14.9793 0.785156C15.0069 0.785156 15.0069 0.785156 15.0621 0.785156C13.269 2.89944 11.5034 5.01373 9.71035 7.12801C11.7793 10.0137 13.8759 12.8709 16 15.7566C15.9724 15.7566 15.9448 15.7566 15.9172 15.7566C14.3172 15.7566 12.7172 15.7566 11.1448 15.7566C11.0897 15.7566 11.0621 15.728 11.0345 15.6994C10.2897 14.6709 9.54483 13.6709 8.77241 12.6423C8.27586 11.9566 7.75172 11.2709 7.25517 10.5852C7.22759 10.5566 7.2 10.5566 7.2 10.528ZM2.86897 2.2423C2.89655 2.29944 2.95172 2.32801 2.97931 2.38516C4.13793 3.95658 5.32414 5.55658 6.51034 7.15658C7.83448 8.95658 9.15862 10.728 10.4828 12.528C10.8966 13.0709 11.3103 13.6423 11.6966 14.1852C11.7241 14.2137 11.7517 14.2423 11.7793 14.2423C12.1931 14.2423 12.6069 14.2423 13.0207 14.2423C13.0483 14.2423 13.0483 14.2423 13.0759 14.2423C13.0483 14.2137 13.0483 14.1852 13.0207 14.1852C12.6345 13.6423 12.2207 13.0994 11.8345 12.5566C10.4276 10.6423 9.02069 8.69944 7.61379 6.78516C6.53793 5.29944 5.43448 3.81373 4.35862 2.32801C4.33103 2.27087 4.30345 2.27087 4.24828 2.27087C3.8069 2.27087 3.3931 2.27087 2.95172 2.27087C2.92414 2.21373 2.89655 2.21373 2.86897 2.2423Z" fill="#002F42"/>
</svg>
