<svg id="arrowRight" fill="none" xmlns="http://www.w3.org/2000/svg">
<path d="M9.62004 3.45521C9.74671 3.45521 9.87337 3.50187 9.97337 3.60187L14.02 7.64854C14.2134 7.84188 14.2134 8.16188 14.02 8.35521L9.97337 12.4019C9.78004 12.5952 9.46004 12.5952 9.26671 12.4019C9.07337 12.2085 9.07337 11.8885 9.26671 11.6952L12.96 8.00188L9.26671 4.30854C9.07337 4.11521 9.07337 3.79521 9.26671 3.60187C9.36004 3.50187 9.49337 3.45521 9.62004 3.45521Z" fill="currentColor"/>
<path d="M2.33322 7.5L13.5532 7.5C13.8266 7.5 14.0532 7.72667 14.0532 8C14.0532 8.27333 13.8266 8.5 13.5532 8.5L2.33322 8.5C2.05989 8.5 1.83322 8.27333 1.83322 8C1.83322 7.72667 2.05989 7.5 2.33322 7.5Z" fill="currentColor"/>
</svg>
