<svg fill="none" xmlns="http://www.w3.org/2000/svg" id="clock">
<path d="M15 28.4375C7.5875 28.4375 1.5625 22.4125 1.5625 15C1.5625 7.5875 7.5875 1.5625 15 1.5625C22.4125 1.5625 28.4375 7.5875 28.4375 15C28.4375 22.4125 22.4125 28.4375 15 28.4375ZM15 3.4375C8.625 3.4375 3.4375 8.625 3.4375 15C3.4375 21.375 8.625 26.5625 15 26.5625C21.375 26.5625 26.5625 21.375 26.5625 15C26.5625 8.625 21.375 3.4375 15 3.4375Z" fill="currentColor"/>
<path d="M19.6375 19.9117C19.475 19.9117 19.3125 19.8742 19.1625 19.7742L15.2875 17.4617C14.325 16.8867 13.6125 15.6242 13.6125 14.5117V9.38672C13.6125 8.87422 14.0375 8.44922 14.55 8.44922C15.0625 8.44922 15.4875 8.87422 15.4875 9.38672V14.5117C15.4875 14.9617 15.8625 15.6242 16.25 15.8492L20.125 18.1617C20.575 18.4242 20.7125 18.9992 20.45 19.4492C20.2625 19.7492 19.95 19.9117 19.6375 19.9117Z" fill="currentColor"/>
</svg>
