<svg id="globe" fill="none" xmlns="http://www.w3.org/2000/svg">
<path d="M18.3333 10.0013C18.3333 14.6037 14.6023 18.3346 9.99996 18.3346M18.3333 10.0013C18.3333 5.39893 14.6023 1.66797 9.99996 1.66797M18.3333 10.0013C18.3333 8.62059 14.6023 7.5013 9.99996 7.5013C5.39759 7.5013 1.66663 8.62059 1.66663 10.0013M18.3333 10.0013C18.3333 11.382 14.6023 12.5013 9.99996 12.5013C5.39759 12.5013 1.66663 11.382 1.66663 10.0013M9.99996 18.3346C5.39759 18.3346 1.66663 14.6037 1.66663 10.0013M9.99996 18.3346C11.8409 18.3346 13.3333 14.6037 13.3333 10.0013C13.3333 5.39893 11.8409 1.66797 9.99996 1.66797M9.99996 18.3346C8.15901 18.3346 6.66663 14.6037 6.66663 10.0013C6.66663 5.39893 8.15901 1.66797 9.99996 1.66797M1.66663 10.0013C1.66663 5.39893 5.39759 1.66797 9.99996 1.66797" stroke="currentColor" stroke-width="1.5"/>
</svg>
