<svg fill="none" xmlns="http://www.w3.org/2000/svg" id="home">
<path fill-rule="evenodd" clip-rule="evenodd" d="M15.5 7.45991V13.9737C15.5 15.8299 14.0076 17.3346 12.1667 17.3346H3.83333C1.99238 17.3346 0.5 15.8299 0.5 13.9737V7.45991C0.5 6.45078 0.949704 5.49505 1.72488 4.85674L5.89155 1.42576C7.11859 0.415373 8.88141 0.415371 10.1084 1.42576L14.2751 4.85674C15.0503 5.49505 15.5 6.45078 15.5 7.45991ZM6.33333 13.3763C5.98816 13.3763 5.70833 13.6561 5.70833 14.0013C5.70833 14.3465 5.98816 14.6263 6.33333 14.6263H9.66667C10.0118 14.6263 10.2917 14.3465 10.2917 14.0013C10.2917 13.6561 10.0118 13.3763 9.66667 13.3763H6.33333Z" fill="currentColor"/>
</svg>
