<svg fill="transparent" xmlns="http://www.w3.org/2000/svg" id="link">
<path d="M5.41668 4.89609C5.33752 4.89609 5.25835 4.86693 5.19585 4.80443C5.07502 4.68359 5.07502 4.48359 5.19585 4.36276L8.61252 0.946094C8.73335 0.82526 8.93335 0.82526 9.05418 0.946094C9.17502 1.06693 9.17502 1.26693 9.05418 1.38776L5.63752 4.80443C5.57502 4.86693 5.49585 4.89609 5.41668 4.89609Z" fill="currentColor"/>
<path d="M9.16669 3.14453C8.99585 3.14453 8.85419 3.00286 8.85419 2.83203V1.14453H7.16669C6.99585 1.14453 6.85419 1.00286 6.85419 0.832031C6.85419 0.661198 6.99585 0.519531 7.16669 0.519531H9.16669C9.33752 0.519531 9.47919 0.661198 9.47919 0.832031V2.83203C9.47919 3.00286 9.33752 3.14453 9.16669 3.14453Z" fill="currentColor"/>
<path d="M6.24998 9.47787H3.74998C1.48748 9.47787 0.520813 8.5112 0.520813 6.2487V3.7487C0.520813 1.4862 1.48748 0.519531 3.74998 0.519531H4.58331C4.75415 0.519531 4.89581 0.661198 4.89581 0.832031C4.89581 1.00286 4.75415 1.14453 4.58331 1.14453H3.74998C1.82915 1.14453 1.14581 1.82786 1.14581 3.7487V6.2487C1.14581 8.16953 1.82915 8.85286 3.74998 8.85286H6.24998C8.17081 8.85286 8.85415 8.16953 8.85415 6.2487V5.41536C8.85415 5.24453 8.99581 5.10286 9.16665 5.10286C9.33748 5.10286 9.47915 5.24453 9.47915 5.41536V6.2487C9.47915 8.5112 8.51248 9.47787 6.24998 9.47787Z" fill="currentColor"/>
</svg>
