<svg fill="currentColor" xmlns="http://www.w3.org/2000/svg" id="logo">
 <g >
  <path d="M53.638 15.414l-5.041 0 -7.219 17.085c-0.234,0.551 -0.744,0.89 -1.343,0.89l-0.056 0c-0.598,0 -1.109,-0.339 -1.343,-0.89l-7.219 -17.085 -5.041 0 8.513 20.15c0.161,0.38 0.354,0.734 0.576,1.06 0.448,0.658 1.131,1.019 1.927,1.019l2.615 0 2.615 0c0.795,0 1.479,-0.361 1.927,-1.019 0.222,-0.326 0.415,-0.68 0.576,-1.06l8.513 -20.15zm-13.631 38.666c-0.156,0.083 -0.318,0.159 -0.484,0.229l-20.149 8.513 0 -5.04 17.084 -7.22c0.551,-0.233 0.89,-0.744 0.89,-1.342l0 -0.057c0,-0.598 -0.339,-1.109 -0.89,-1.342l-17.084 -7.22 0 -5.04 20.149 8.513c0.166,0.07 0.328,0.146 0.484,0.229 0.156,-0.083 0.318,-0.159 0.484,-0.229l20.149 -8.513 0 5.04 -17.084 7.22c-0.551,0.233 -0.89,0.744 -0.89,1.342l0 0.057c0,0.598 0.339,1.109 0.89,1.342l17.084 7.22 0 5.04 -20.149 -8.513c-0.166,-0.07 -0.328,-0.146 -0.484,-0.229zm13.631 28.889l-5.041 0 -7.219 -17.085c-0.234,-0.551 -0.744,-0.89 -1.343,-0.89l-0.056 0c-0.598,0 -1.109,0.339 -1.343,0.89l-7.219 17.085 -5.041 0 8.513 -20.149c0.161,-0.381 0.354,-0.735 0.576,-1.061 0.448,-0.657 1.131,-1.019 1.927,-1.019l2.615 0 2.615 0c0.795,0 1.479,0.362 1.927,1.019 0.222,0.326 0.415,0.68 0.576,1.061l8.513 20.149zm-53.638 -33.777l16.676 -39.214c0.769,-1.824 1.697,-3.525 2.762,-5.089 2.148,-3.154 5.43,-4.889 9.245,-4.889l11.324 0 11.324 0c3.815,0 7.097,1.735 9.245,4.889 1.064,1.564 1.993,3.265 2.762,5.089l16.676 39.214 -16.676 39.212c-0.769,1.824 -1.698,3.525 -2.762,5.09 -2.148,3.154 -5.43,4.889 -9.245,4.889l-11.324 0 -11.324 0c-3.815,0 -7.097,-1.735 -9.245,-4.889 -1.065,-1.565 -1.993,-3.266 -2.762,-5.09l-16.676 -39.212z"/>
  <g >
   <path d="M108.843 62.592l-2.622 0c-0.797,0 -1.483,-0.363 -1.932,-1.022 -0.222,-0.327 -0.416,-0.682 -0.577,-1.063l-10.326 -24.439 5.054 0 9.029 21.366c0.234,0.554 0.746,0.893 1.346,0.893l0.056 0c0.601,0 1.113,-0.339 1.346,-0.893l9.029 -21.366 5.054 0 -10.326 24.439c-0.161,0.381 -0.354,0.736 -0.577,1.063 -0.449,0.659 -1.135,1.022 -1.931,1.022l-2.623 0zm72.585 -11.323l18.723 0c0.538,0 1.001,-0.192 1.38,-0.573 0.38,-0.381 0.571,-0.845 0.568,-1.383 -0.008,-1.941 -0.284,-3.765 -0.831,-5.471 -0.554,-1.731 -1.368,-3.238 -2.441,-4.519 -1.073,-1.281 -2.389,-2.294 -3.948,-3.038 -1.557,-0.745 -3.323,-1.117 -5.297,-1.117 -1.87,0 -3.592,0.363 -5.168,1.091 -1.575,0.727 -2.935,1.722 -4.078,2.986 -1.142,1.264 -2.034,2.753 -2.674,4.467 -0.641,1.714 -0.961,3.54 -0.961,5.479 0,2.078 0.364,3.983 1.082,5.714 0.719,1.731 1.688,3.211 2.909,4.441 1.22,1.229 2.64,2.181 4.267,2.856 1.628,0.675 3.359,1.013 5.194,1.013 2.563,0 4.71,-0.459 6.441,-1.376 1.731,-0.918 3.272,-2.139 4.622,-3.662l-2.804 -2.506c-2.408,2.485 -4.653,3.44 -8.155,3.44 -4.326,0 -8.417,-3.519 -8.829,-7.842zm0 -3.817c0.443,-4.218 3.229,-8.054 8.05,-8.054 4.82,0 7.512,3.588 7.894,8.054l-15.944 0zm86.673 3.817l18.724 0c0.538,0 1,-0.192 1.38,-0.573 0.379,-0.381 0.571,-0.845 0.568,-1.383 -0.008,-1.941 -0.285,-3.765 -0.831,-5.471 -0.554,-1.731 -1.367,-3.238 -2.441,-4.519 -1.073,-1.281 -2.389,-2.294 -3.947,-3.038 -1.559,-0.745 -3.324,-1.117 -5.298,-1.117 -1.87,0 -3.593,0.363 -5.168,1.091 -1.575,0.727 -2.935,1.722 -4.078,2.986 -1.142,1.264 -2.034,2.753 -2.674,4.467 -0.641,1.714 -0.961,3.54 -0.961,5.479 0,2.078 0.363,3.983 1.082,5.714 0.718,1.731 1.688,3.211 2.908,4.441 1.221,1.229 2.641,2.181 4.268,2.856 1.628,0.675 3.359,1.013 5.194,1.013 2.562,0 4.709,-0.459 6.441,-1.376 1.731,-0.918 3.272,-2.139 4.622,-3.662l-2.804 -2.506c-2.408,2.485 -4.653,3.44 -8.155,3.44 -4.326,0 -8.418,-3.519 -8.83,-7.842zm0 -3.817c0.445,-4.218 3.23,-8.054 8.051,-8.054 4.821,0 7.512,3.588 7.895,8.054l-15.946 0zm37.615 15.557c6.934,0 11.405,-3.979 11.405,-11.898l0 -15.043 -4.66 0 0 15.27c0,4.888 -2.539,7.389 -6.669,7.389 -4.168,0 -6.707,-2.652 -6.707,-7.578l0 -15.081 -4.66 0 0 15.27c0,7.692 4.395,11.671 11.291,11.671zm-86.475 0c6.934,0 11.405,-3.979 11.405,-11.898l0 -15.043 -4.66 0 0 15.27c0,4.888 -2.539,7.389 -6.669,7.389 -4.168,0 -6.707,-2.652 -6.707,-7.578l0 -15.081 -4.661 0 0 15.27c0,7.692 4.396,11.671 11.292,11.671zm-63.129 -0.417l19.189 0 0 -4.244 -14.528 0 0 -22.28 -4.661 0 0 26.524zm80.976 0l4.661 0 0 -9.245 5.835 0 6.517 9.245 5.495 0 -7.162 -10.042c3.714,-1.06 6.328,-3.674 6.328,-8.032l0 -0.076c0,-2.311 -0.796,-4.281 -2.198,-5.722 -1.705,-1.667 -4.319,-2.652 -7.654,-2.652l-11.822 0 0 26.524zm4.661 -13.376l0 -8.904 6.782 0c3.448,0 5.494,1.553 5.494,4.395l0 0.076c0,2.691 -2.121,4.433 -5.455,4.433l-6.821 0zm-104.956 -13.148l-2.622 0c-0.797,0 -1.483,0.362 -1.932,1.022 -0.222,0.326 -0.416,0.682 -0.577,1.063l-10.326 24.439 5.054 0 9.029 -21.367c0.234,-0.552 0.746,-0.892 1.346,-0.892l0.056 0c0.601,0 1.113,0.34 1.346,0.892l9.029 21.367 5.054 0 -10.326 -24.439c-0.161,-0.381 -0.354,-0.737 -0.577,-1.063 -0.449,-0.66 -1.135,-1.022 -1.931,-1.022l-2.623 0z"/>
   <path d="M342.158 54.31c-0.107,0.053 -0.218,0.104 -0.33,0.151l-19.981 8.442 0 -4.833 16.909 -7.145c0.572,-0.242 1.039,-0.834 1.039,-1.597 0,-0.762 -0.47,-1.352 -1.039,-1.593l-16.909 -7.145 0 -4.833 19.981 8.442c0.112,0.048 0.223,0.098 0.33,0.151 0.108,-0.053 0.219,-0.103 0.331,-0.151l19.98 -8.442 0 4.834 -16.908 7.144c-0.569,0.241 -1.039,0.831 -1.039,1.593 0,0.763 0.467,1.355 1.039,1.597l16.908 7.145 0 4.833 -19.98 -8.442c-0.112,-0.047 -0.223,-0.098 -0.331,-0.151z"/>
  </g>
 </g>
</svg>
