<svg xmlns="http://www.w3.org/2000/svg" id="password" >
<path d="M9.18325 16.875H6.24992C5.62492 16.875 5.16659 16.85 4.77492 16.7917C1.99992 16.4833 1.45825 14.8333 1.45825 12.0833V7.91667C1.45825 5.16667 2.00825 3.50833 4.79992 3.2C5.16659 3.15 5.62492 3.125 6.24992 3.125H9.13325C9.47492 3.125 9.75825 3.40833 9.75825 3.75C9.75825 4.09167 9.47492 4.375 9.13325 4.375H6.24992C5.68325 4.375 5.28325 4.4 4.95825 4.44167C3.26659 4.625 2.70825 5.15833 2.70825 7.91667V12.0833C2.70825 14.8417 3.26659 15.3667 4.93325 15.5583C5.28325 15.6083 5.68325 15.625 6.24992 15.625H9.18325C9.52492 15.625 9.80825 15.9083 9.80825 16.25C9.80825 16.5917 9.52492 16.875 9.18325 16.875Z" fill="currentColor"/>
<path d="M13.7499 16.875H12.5166C12.1749 16.875 11.8916 16.5917 11.8916 16.25C11.8916 15.9083 12.1749 15.625 12.5166 15.625H13.7499C14.3166 15.625 14.7166 15.6 15.0416 15.5583C16.7333 15.375 17.2916 14.8417 17.2916 12.0833V7.91667C17.2916 5.15833 16.7333 4.63333 15.0666 4.44167C14.7166 4.39167 14.3166 4.375 13.7499 4.375H12.5166C12.1749 4.375 11.8916 4.09167 11.8916 3.75C11.8916 3.40833 12.1749 3.125 12.5166 3.125H13.7499C14.3749 3.125 14.8333 3.15 15.2249 3.20833C17.9999 3.51667 18.5416 5.16667 18.5416 7.91667V12.0833C18.5416 14.8333 17.9916 16.4917 15.1999 16.8C14.8333 16.85 14.3749 16.875 13.7499 16.875Z" fill="currentColor"/>
<path d="M12.5 18.9596C12.1583 18.9596 11.875 18.6763 11.875 18.3346V1.66797C11.875 1.3263 12.1583 1.04297 12.5 1.04297C12.8417 1.04297 13.125 1.3263 13.125 1.66797V18.3346C13.125 18.6763 12.8417 18.9596 12.5 18.9596Z" fill="currentColor"/>
<path d="M5.58333 10.832C5.475 10.832 5.36667 10.807 5.26667 10.7654C5.16667 10.7237 5.075 10.6654 4.99167 10.5904C4.91667 10.507 4.85 10.4154 4.80833 10.3154C4.76667 10.2154 4.75 10.107 4.75 9.9987C4.75 9.78203 4.84167 9.56536 4.99167 9.40703C5.3 9.0987 5.85833 9.0987 6.175 9.40703C6.325 9.56536 6.41667 9.78203 6.41667 9.9987C6.41667 10.107 6.39167 10.2154 6.35 10.3154C6.30833 10.4154 6.25 10.507 6.175 10.5904C6.09167 10.6654 6 10.7237 5.9 10.7654C5.8 10.807 5.69167 10.832 5.58333 10.832Z" fill="currentColor"/>
<path d="M8.91659 10.832C8.80825 10.832 8.69992 10.807 8.59992 10.7654C8.49992 10.7237 8.40825 10.6654 8.32492 10.5904C8.24992 10.507 8.19159 10.4154 8.14159 10.3154C8.10825 10.2154 8.08325 10.107 8.08325 9.9987C8.08325 9.78203 8.17492 9.56536 8.32492 9.40703C8.63325 9.0987 9.19992 9.0987 9.50825 9.40703C9.65825 9.56536 9.74992 9.78203 9.74992 9.9987C9.74992 10.107 9.72492 10.2154 9.68325 10.3154C9.64159 10.4154 9.58325 10.507 9.50825 10.5904C9.42492 10.6654 9.33325 10.7237 9.23325 10.7654C9.13325 10.807 9.02492 10.832 8.91659 10.832Z" fill="currentColor"/>
</svg>