<svg fill="transparent" xmlns="http://www.w3.org/2000/svg" id="views">
<path d="M13.7535 4.56743C14.5266 5.38081 14.5266 6.61658 13.7535 7.42997C12.4497 8.80181 10.2103 10.6654 7.66667 10.6654C5.12299 10.6654 2.88366 8.80181 1.5798 7.42997C0.806732 6.61658 0.806732 5.38081 1.5798 4.56743C2.88366 3.19559 5.12299 1.33203 7.66667 1.33203C10.2103 1.33203 12.4497 3.19559 13.7535 4.56743Z" stroke="currentColor"/>
<path d="M9.66667 5.9987C9.66667 7.10327 8.77124 7.9987 7.66667 7.9987C6.5621 7.9987 5.66667 7.10327 5.66667 5.9987C5.66667 4.89413 6.5621 3.9987 7.66667 3.9987C8.77124 3.9987 9.66667 4.89413 9.66667 5.9987Z" stroke="currentColor"/>
</svg>
