<svg fill="none" xmlns="http://www.w3.org/2000/svg" id="wallet">
<path d="M18.6 9.36187V8.71688C18.6 7.92188 17.955 7.27688 17.16 7.27688H9.315C8.775 6.31688 7.74 5.67188 6.57 5.67188C5.4 5.67188 4.35 6.33188 3.81 7.29188H2.07C0.93 7.29188 0 8.22187 0 9.36187V20.5819C0 20.9569 0.105 21.3319 0.3 21.6469C1.02 22.8319 2.325 23.5819 3.705 23.5819H18.42C19.215 23.5819 19.86 22.9369 19.86 22.1419V10.7869C19.845 10.0519 19.305 9.45187 18.6 9.36187ZM17.175 8.25188C17.43 8.25188 17.64 8.46188 17.64 8.71688V9.34687H9.675C9.705 9.18187 9.72 9.00187 9.72 8.82187C9.72 8.62687 9.705 8.43188 9.66 8.25188H17.175ZM6.57 6.27187C7.98 6.27187 9.135 7.42687 9.135 8.83687C9.135 9.01687 9.12 9.18187 9.075 9.36187L4.065 9.37688C4.035 9.21188 4.005 9.03188 4.005 8.85188C4.005 7.41188 5.145 6.27187 6.57 6.27187ZM2.07 8.25188H3.45C3.42 8.43188 3.39 8.62687 3.39 8.82187C3.39 9.00187 3.405 9.16687 3.435 9.34687C2.685 9.34687 1.965 9.00187 1.485 8.43187C1.65 8.31188 1.86 8.25188 2.07 8.25188ZM18.87 22.1419C18.87 22.3969 18.66 22.6069 18.405 22.6069H3.705C2.655 22.6069 1.68 22.0519 1.14 21.1519C1.035 20.9869 0.99 20.7919 0.99 20.5819V9.34687C0.99 9.33187 0.99 9.31688 0.99 9.30188C1.635 9.93188 2.52 10.3069 3.45 10.3069H18.42C18.675 10.3069 18.885 10.5169 18.885 10.7719V22.1419H18.87Z" fill="currentColor"/>
<path d="M12.12 6.33C13.86 6.33 15.285 4.905 15.285 3.165C15.285 1.425 13.86 0 12.12 0C10.38 0 8.95496 1.425 8.95496 3.165C8.95496 4.905 10.365 6.33 12.12 6.33ZM12.12 0.6C13.53 0.6 14.685 1.755 14.685 3.165C14.685 4.575 13.53 5.73 12.12 5.73C10.71 5.73 9.55496 4.575 9.55496 3.165C9.55496 1.755 10.695 0.6 12.12 0.6Z" fill="currentColor"/>
</svg>
