<svg id="analytics" fill="currentColor" xmlns="http://www.w3.org/2000/svg">
<path d="M1.91509 7.9777L1.83304 8.5488H2.41001H3.16667C3.25508 8.5488 3.33986 8.58392 3.40237 8.64643C3.46489 8.70894 3.50001 8.79373 3.50001 8.88214V13.168C3.50001 13.2564 3.46489 13.3412 3.40237 13.4037C3.33986 13.4662 3.25508 13.5013 3.16667 13.5013H2.33334C1.65476 13.5013 1.16667 12.9967 1.16667 12.4538V9.0013C1.16667 4.68244 4.68115 1.16797 9 1.16797C13.3189 1.16797 16.8333 4.68244 16.8333 9.0013V12.4538C16.8333 12.9967 16.3452 13.5013 15.6667 13.5013H15.1667V14.0013C15.1667 15.5635 13.8955 16.8346 12.3333 16.8346H7.83334V15.3346H10.1667V15.668V16.168H10.6667H12.3333C13.5286 16.168 14.5 15.1966 14.5 14.0013V8.88214C14.5 8.79373 14.5351 8.70894 14.5976 8.64643C14.6601 8.58392 14.7449 8.5488 14.8333 8.5488H15.59H16.167L16.0849 7.9777C15.5869 4.51121 12.605 1.83464 9 1.83464C5.39499 1.83464 2.41311 4.51121 1.91509 7.9777Z" fill="currentColor" stroke="currentColor"/>
</svg>
