<svg  id="faq" fill="currentColor" xmlns="http://www.w3.org/2000/svg">
<path d="M13.8333 7.33464V4.83464C13.8333 3.91547 13.0858 3.16797 12.1667 3.16797H9.66667C9.66667 1.78964 8.545 0.667969 7.16667 0.667969C5.78833 0.667969 4.66667 1.78964 4.66667 3.16797H2.16667C1.2475 3.16797 0.5 3.91547 0.5 4.83464V8.0688L1.04917 8.26797C1.7175 8.50963 2.16667 9.13964 2.16667 9.83463C2.16667 10.5296 1.7175 11.1596 1.04917 11.4013L0.5 11.6005V14.8346C0.5 15.7538 1.2475 16.5013 2.16667 16.5013H5.40083L5.6 15.9521C5.84167 15.2838 6.47167 14.8346 7.16667 14.8346C7.86167 14.8346 8.49167 15.2838 8.73333 15.9521L8.9325 16.5013H12.1667C13.0858 16.5013 13.8333 15.7538 13.8333 14.8346V12.3346C15.2117 12.3346 16.3333 11.213 16.3333 9.83463C16.3333 8.4563 15.2117 7.33464 13.8333 7.33464ZM13.8333 10.668H12.1667L12.1642 14.8346H10.0433C9.45083 13.818 8.35833 13.168 7.16667 13.168C5.975 13.168 4.8825 13.818 4.29 14.8346H2.16667V12.7113C3.18333 12.1188 3.83333 11.0263 3.83333 9.83463C3.83333 8.64297 3.18333 7.55047 2.16667 6.95797V4.83464H6.33333V3.16797C6.33333 2.94695 6.42113 2.73499 6.57741 2.57871C6.73369 2.42243 6.94565 2.33464 7.16667 2.33464C7.38768 2.33464 7.59964 2.42243 7.75592 2.57871C7.9122 2.73499 8 2.94695 8 3.16797V4.83464H12.1667V9.0013H13.8333C14.0543 9.0013 14.2663 9.0891 14.4226 9.24538C14.5789 9.40166 14.6667 9.61362 14.6667 9.83463C14.6667 10.0556 14.5789 10.2676 14.4226 10.4239C14.2663 10.5802 14.0543 10.668 13.8333 10.668Z" fill="currentColor"/>
</svg>
