<svg id="fund" fill="currentColor" xmlns="http://www.w3.org/2000/svg">
<path d="M2.33334 16.5013H10.35C10.8309 16.5016 11.3061 16.3976 11.743 16.1967C12.1799 15.9957 12.5681 15.7025 12.8808 15.3371L17.1325 10.3771C17.2215 10.2735 17.2837 10.1495 17.3135 10.0161C17.3433 9.88274 17.3399 9.74409 17.3035 9.61236C17.2671 9.48063 17.1989 9.35987 17.1048 9.26073C17.0108 9.16158 16.8938 9.08709 16.7642 9.04381L15.1242 8.49714C14.7278 8.3683 14.3058 8.33915 13.8955 8.41226C13.4851 8.48537 13.0992 8.65849 12.7717 8.91631L10.1175 11.0388L9.60334 10.0096C9.32788 9.45487 8.90259 8.98832 8.37562 8.66283C7.84864 8.33734 7.24106 8.16592 6.62167 8.16798H2.33334C1.41417 8.16798 0.666672 8.91548 0.666672 9.83464V14.8346C0.666672 15.7538 1.41417 16.5013 2.33334 16.5013ZM2.33334 9.83464H6.62167C7.2575 9.83464 7.82834 10.1871 8.11251 10.7555L8.485 11.5013H4.83334V13.168H9.84501C9.97322 13.1663 10.0993 13.1349 10.2133 13.0763L10.2158 13.0755L10.2192 13.0738H10.2217L10.2233 13.073H10.2267L10.2275 13.0721C10.235 13.0746 10.23 13.0713 10.23 13.0713C10.2383 13.0713 10.2317 13.0705 10.2317 13.0705H10.2325L10.2342 13.0696L10.2367 13.0688L10.2383 13.068L10.24 13.0671L10.2425 13.0663L10.2442 13.0655C10.2467 13.0655 10.245 13.0646 10.2458 13.0646L10.2483 13.063L10.25 13.0621L10.2517 13.0613L10.2542 13.0605L10.2558 13.0596H10.2567L10.2583 13.0588L10.2608 13.058L10.2625 13.0571C10.27 13.0563 10.265 13.0563 10.265 13.0563L10.2667 13.0555C10.2988 13.0361 10.3294 13.0144 10.3583 12.9905L13.8133 10.2263C14.0317 10.053 14.3325 9.99881 14.5967 10.0871L15.0608 10.2421L11.6167 14.2613C11.4582 14.4412 11.2634 14.5854 11.045 14.6842C10.8266 14.783 10.5897 14.8343 10.35 14.8346H2.33334V9.83464ZM12.3333 0.667977H12.3192C12.1833 0.669643 11.4808 0.700477 10.6667 1.25548C9.87417 0.715477 9.18834 0.672143 9.02667 0.66881L9.00167 0.667977H8.99834C8.33084 0.667977 7.7025 0.92881 7.2325 1.39964C6.76084 1.87214 6.5 2.49964 6.5 3.16798C6.5 3.83631 6.76084 4.46381 7.2175 4.92131L10.0625 7.90964C10.1408 7.9909 10.2347 8.05552 10.3385 8.09963C10.4423 8.14375 10.554 8.16645 10.6668 8.16637C10.7797 8.16629 10.8913 8.14344 10.9951 8.09918C11.0989 8.05493 11.1927 7.99018 11.2708 7.90881L14.1008 4.93548C14.5733 4.46381 14.8333 3.83631 14.8333 3.16798C14.8333 2.49964 14.5725 1.87214 14.1017 1.40048C13.8703 1.1676 13.595 0.982942 13.2917 0.857206C12.9885 0.73147 12.6633 0.667152 12.335 0.667977H12.3333ZM13.1667 3.16798C13.1667 3.39048 13.08 3.59964 12.9075 3.77214L10.6667 6.12631L8.41084 3.75714C8.25334 3.59964 8.16667 3.39048 8.16667 3.16798C8.16667 2.94548 8.25334 2.73631 8.41167 2.57798C8.56237 2.42469 8.76757 2.33722 8.9825 2.33464C9.00334 2.33548 9.40084 2.36131 9.87167 2.73881C9.93917 2.79298 10.0075 2.85464 10.0775 2.92381L10.6667 3.51298L11.2558 2.92381C11.3258 2.85464 11.3942 2.79298 11.4617 2.73881C11.9025 2.38464 12.275 2.34048 12.3383 2.33548C12.447 2.33546 12.5545 2.35695 12.6548 2.39871C12.755 2.44048 12.846 2.50169 12.9225 2.57881C13.08 2.73631 13.1667 2.94548 13.1667 3.16798Z" fill="currentColor"/>
</svg>
