<svg id="opportunities" version="1.2" xmlns="http://www.w3.org/2000/svg" ><path  d="m5.3 7.1h-5q0 0 0 0 0-0.1 0-0.1v-6.7q0 0 0 0 0 0 0 0h5q0.1 0 0.1 0 0 0 0 0v6.7q0 0 0 0.1 0 0-0.1 0zm-5 6.6q0 0-0.1 0v-3.4q0.1 0 0.1 0 0 0 0 0h5q0.1 0 0.1 0 0 0 0 0v3.4q0 0 0 0 0 0-0.1 0.1h-5q0-0.1 0-0.1l-0.6 0.6zm8.4 0q0-0.1 0-0.1v-5.8q0-0.1 0-0.1 0 0 0 0h5q0.1 0 0.1 0 0 0 0 0.1v5.8q0 0 0 0.1l0.5 0.5-0.5-0.5q0 0-0.1 0h-5q0 0 0 0zm5-9.2h-5q0 0 0 0 0 0 0-0.1v-4.1q0-0.1 0-0.1 0 0 0 0h5q0.1 0 0.1 0l0.5-0.5-0.5 0.5q0 0 0 0.1v4.1q0 0.1 0 0.1l0.5 0.5-0.5-0.5q0 0-0.1 0z" fill="currentColor"/></svg>