<svg id="settings" fill="none" xmlns="http://www.w3.org/2000/svg">
<path d="M10 1.66797C7.79859 1.69604 5.69525 2.58303 4.13849 4.13979C2.58173 5.69655 1.69475 7.79989 1.66667 10.0013C1.67696 11.2837 1.98311 12.5465 2.56126 13.6912C3.13942 14.836 3.974 15.8319 5.00001 16.6013V16.668H5.08334C6.49432 17.7492 8.22238 18.3352 10 18.3352C11.7776 18.3352 13.5057 17.7492 14.9167 16.668H15V16.6013C16.026 15.8319 16.8606 14.836 17.4387 13.6912C18.0169 12.5465 18.323 11.2837 18.3333 10.0013C18.3053 7.79989 17.4183 5.69655 15.8615 4.13979C14.3048 2.58303 12.2014 1.69604 10 1.66797ZM6.725 15.7763C6.84666 15.2192 7.15513 14.7204 7.59924 14.3627C8.04335 14.0049 8.59641 13.8098 9.16667 13.8096H10.8333C11.4036 13.8098 11.9567 14.0049 12.4008 14.3627C12.8449 14.7204 13.1533 15.2192 13.275 15.7763C12.2824 16.3603 11.1517 16.6683 10 16.6683C8.84834 16.6683 7.71762 16.3603 6.725 15.7763ZM14.675 14.7013C14.358 13.9438 13.8243 13.2968 13.1408 12.8416C12.4573 12.3864 11.6545 12.1434 10.8333 12.143H9.16667C8.34549 12.1434 7.54273 12.3864 6.85924 12.8416C6.17574 13.2968 5.64198 13.9438 5.325 14.7013C4.70056 14.0871 4.20326 13.3559 3.86152 12.5495C3.51978 11.743 3.3403 10.8771 3.33334 10.0013C3.35495 8.23991 4.06427 6.55674 5.30986 5.31116C6.55545 4.06557 8.23861 3.35625 10 3.33464C11.7614 3.35625 13.4446 4.06557 14.6901 5.31116C15.9357 6.55674 16.6451 8.23991 16.6667 10.0013C16.6597 10.8771 16.4802 11.743 16.1385 12.5495C15.7968 13.3559 15.2995 14.0871 14.675 14.7013Z" fill="currentColor"/>
<path d="M10 5.00088C9.55946 4.99062 9.12141 5.06983 8.71235 5.23371C8.30329 5.39759 7.93173 5.64275 7.62013 5.95434C7.30853 6.26594 7.06338 6.63751 6.8995 7.04656C6.73561 7.45562 6.65641 7.89367 6.66667 8.33422C6.65641 8.77476 6.73561 9.21281 6.8995 9.62187C7.06338 10.0309 7.30853 10.4025 7.62013 10.7141C7.93173 11.0257 8.30329 11.2708 8.71235 11.4347C9.12141 11.5986 9.55946 11.6778 10 11.6676C10.4405 11.6778 10.8786 11.5986 11.2877 11.4347C11.6967 11.2708 12.0683 11.0257 12.3799 10.7141C12.6915 10.4025 12.9366 10.0309 13.1005 9.62187C13.2644 9.21281 13.3436 8.77476 13.3333 8.33422C13.3436 7.89367 13.2644 7.45562 13.1005 7.04656C12.9366 6.63751 12.6915 6.26594 12.3799 5.95434C12.0683 5.64275 11.6967 5.39759 11.2877 5.23371C10.8786 5.06983 10.4405 4.99062 10 5.00088ZM10 10.0009C9.7783 10.0116 9.5568 9.97583 9.34973 9.89586C9.14267 9.8159 8.95462 9.69351 8.79767 9.53655C8.64071 9.3796 8.51832 9.19155 8.43836 8.98449C8.35839 8.77742 8.32262 8.55593 8.33334 8.33422C8.32262 8.11251 8.35839 7.89101 8.43836 7.68395C8.51832 7.47688 8.64071 7.28884 8.79767 7.13188C8.95462 6.97493 9.14267 6.85254 9.34973 6.77257C9.5568 6.6926 9.7783 6.65683 10 6.66755C10.2217 6.65683 10.4432 6.6926 10.6503 6.77257C10.8573 6.85254 11.0454 6.97493 11.2023 7.13188C11.3593 7.28884 11.4817 7.47688 11.5617 7.68395C11.6416 7.89101 11.6774 8.11251 11.6667 8.33422C11.6774 8.55593 11.6416 8.77742 11.5617 8.98449C11.4817 9.19155 11.3593 9.3796 11.2023 9.53655C11.0454 9.69351 10.8573 9.8159 10.6503 9.89586C10.4432 9.97583 10.2217 10.0116 10 10.0009Z" fill="currentColor"/>
</svg>
